<svg xmlns="http://www.w3.org/2000/svg" xmlns:xlink="http://www.w3.org/1999/xlink" xml:space="preserve" version="1.0" style="shape-rendering:geometricPrecision;text-rendering:geometricPrecision;image-rendering:optimizeQuality;" viewBox="0 0 10000 12500" x="0px" y="0px" fill-rule="evenodd" clip-rule="evenodd"><defs><style type="text/css">
   
    .fil0 {fill:black;fill-rule:nonzero}
   
  </style></defs><g><path class="fil0" d="M6362 4161l0 3662c0,249 -203,453 -453,453l-3508 0c-250,0 -454,-204 -454,-453l0 -3662c0,-57 47,-104 104,-104l4207 0c58,0 104,47 104,104zm-208 3662l0 -3558 -3998 0 0 3558c0,134 110,245 245,245l3508 0c134,0 245,-111 245,-245z"/><path class="fil0" d="M1793 3342l4609 -1243c45,-12 71,-59 59,-104 -12,-45 -59,-72 -104,-60 -1536,414 -3072,828 -4608,1243 -46,12 -72,58 -60,104 11,46 59,72 104,60zm1352 -1148l1510 -408c56,-14 113,19 128,74l71 265 1449 -391c154,-42 314,50 358,203 45,155 -51,322 -206,363l-4608 1243c-153,41 -312,-48 -357,-200 -41,-160 40,-320 202,-366l1451 -391 -71 -265c-15,-55 18,-113 73,-127zm1464 -180l-1309 354 44 164 1309 -353 -44 -165z"/><path class="fil0" d="M3074 4569c177,0 321,144 321,320l0 2593c0,176 -144,320 -320,320 -176,0 -321,-144 -321,-320l0 -2593c0,-176 144,-320 320,-320zm1 208c-62,0 -112,50 -112,112l0 2593c0,61 50,111 111,111 62,0 112,-50 112,-111l0 -2593c0,-61 -50,-112 -111,-112z"/><path class="fil0" d="M4155 4569c176,0 320,144 320,320l0 2593c0,176 -144,320 -320,320 -177,0 -320,-144 -320,-320l0 -2593c0,-176 144,-320 320,-320zm0 208c-62,0 -112,50 -112,112l0 2593c0,61 50,111 112,111 61,0 112,-50 112,-111l0 -2593c0,-61 -51,-112 -112,-112z"/><path class="fil0" d="M5235 4569c176,0 320,144 320,320l0 2593c0,176 -144,320 -320,320 -176,0 -320,-144 -320,-320l0 -2593c0,-176 144,-320 320,-320zm0 208c-62,0 -112,50 -112,112l0 2593c0,61 50,111 112,111 61,0 112,-50 112,-111l0 -2593c0,-62 -50,-112 -112,-112z"/><path class="fil0" d="M6744 2666c3,175 145,317 320,321 152,0 141,208 7,208 -178,0 -324,143 -327,321 0,151 -209,140 -209,7 0,-179 -142,-324 -321,-328 -150,0 -140,-208 -7,-208 88,0 170,-35 232,-96 58,-58 94,-137 96,-225 0,-148 209,-148 209,0zm-104 539c32,-43 70,-82 114,-114 -44,-32 -83,-71 -115,-114 -32,43 -70,82 -114,114 44,32 83,71 115,114z"/><path class="fil0" d="M7754 3568c0,-137 208,-137 208,0 0,249 198,451 447,455 154,0 141,209 8,209 -248,0 -450,198 -455,446 0,155 -208,141 -208,9 0,-249 -198,-450 -446,-455 -154,0 -142,-209 -9,-209 251,0 455,-203 455,-455zm104 762c52,-81 121,-151 202,-202 -81,-53 -150,-122 -202,-203 -52,81 -121,151 -202,202 81,52 150,122 202,203z"/><path class="fil0" d="M4642 3159c0,-137 208,-137 208,0 0,120 95,217 215,220 148,0 140,208 5,208 -119,0 -217,96 -220,215 0,148 -208,139 -208,5 0,-120 -94,-217 -214,-220 -148,0 -140,-208 -6,-208 122,0 220,-99 220,-220zm104 368c14,-16 29,-30 44,-44 -15,-13 -30,-29 -44,-44 -13,16 -28,31 -44,44 16,14 30,28 44,44z"/><path class="fil0" d="M1925 1976c0,-137 208,-137 208,0 0,120 94,217 214,220 149,0 140,208 6,208 -119,0 -217,96 -220,215 0,148 -208,140 -208,5 0,-120 -95,-217 -215,-220 -148,0 -140,-208 -5,-208 121,0 220,-98 220,-220zm104 369c13,-17 28,-31 44,-45 -16,-13 -31,-29 -44,-44 -14,16 -29,31 -45,44 16,14 31,28 45,45z"/></g><text x="0" y="10015" fill="#000000" font-size="5px" font-weight="bold" font-family="'Helvetica Neue', Helvetica, Arial-Unicode, Arial, Sans-serif">Created by Ragal Kartidev</text><text x="0" y="10020" fill="#000000" font-size="5px" font-weight="bold" font-family="'Helvetica Neue', Helvetica, Arial-Unicode, Arial, Sans-serif">from the Noun Project</text></svg>